<svg xmlns="http://www.w3.org/2000/svg" viewBox="0 0 500 510.07"><defs><style>.cls-1{fill:#fff;}.cls-2{fill:#4dccc4;}.cls-3,.cls-4{fill:none;stroke-miterlimit:10;stroke-width:22.27px;}.cls-3{stroke:#4dccc4;}.cls-4{stroke:#003a60;}</style></defs><g id="Layer_3" data-name="Layer 3"><rect class="cls-1" x="7.62" y="12.65" width="484.77" height="484.77" rx="242.38"/></g><g id="Layer_2" data-name="Layer 2"><path class="cls-2" d="M336.9,341.53H267.41l34.75-34.75L336.9,272Z"/><path class="cls-3" d="M391.9,282.33H311.84q-7.87,8-15.92,16-9,9-18.1,17.8v80.25a4,4,0,0,0,4,4h110a4,4,0,0,0,4-4v-110A4,4,0,0,0,391.9,282.33Z"/><rect class="cls-4" x="103.55" y="282.33" width="118.05" height="118.05" rx="4.02"/><rect class="cls-4" x="277.88" y="108.01" width="118.05" height="118.05" rx="4.02"/><rect class="cls-4" x="103.55" y="108.01" width="118.05" height="118.05" rx="4.02"/></g></svg>