<svg xmlns="http://www.w3.org/2000/svg" width="19.181" height="19.302" viewBox="0 0 19.181 19.302"><defs><style>.a{fill:#003a60;}</style></defs><path class="a" d="M82.962,62.4H66.618A1.4,1.4,0,0,0,65.2,63.785V80.319A1.4,1.4,0,0,0,66.618,81.7H82.962a1.4,1.4,0,0,0,1.418-1.383V63.783A1.4,1.4,0,0,0,82.962,62.4ZM71.014,78.554h-2.9V69.842h2.9Zm-1.447-9.9h-.02a1.653,1.653,0,1,1,.02,0Zm11.893,9.9h-2.9V73.894c0-1.171-.417-1.97-1.465-1.97a1.586,1.586,0,0,0-1.489,1.059,2.03,2.03,0,0,0-.093.706v4.87h-2.9s.037-7.9,0-8.715h2.9v1.233a2.875,2.875,0,0,1,2.609-1.438c1.906,0,3.335,1.246,3.335,3.924Z" transform="translate(-65.2 -62.4)"/></svg>