<svg xmlns="http://www.w3.org/2000/svg" xmlns:xlink="http://www.w3.org/1999/xlink" width="156" height="45" viewBox="0 0 156 45">
    <defs>
        <clipPath id="clip-path">
            <rect width="45" height="156" fill="none"/>
        </clipPath>
    </defs>
    <g id="Повторяющаяся_сетка_18" data-name="Повторяющаяся сетка 18" transform="translate(156) rotate(90)" clip-path="url(#clip-path)">
        <g transform="translate(-1862 -331)">
            <circle id="Эллипс_367" data-name="Эллипс 367" cx="3" cy="3" r="3" transform="translate(1862 331)" fill="#dae3e9" opacity="0.8"/>
        </g>
        <g transform="translate(-1846 -331)">
            <circle id="Эллипс_367-2" data-name="Эллипс 367" cx="3" cy="3" r="3" transform="translate(1862 331)" fill="#dae3e9" opacity="0.8"/>
        </g>
        <g transform="translate(-1830 -331)">
            <circle id="Эллипс_367-3" data-name="Эллипс 367" cx="3" cy="3" r="3" transform="translate(1862 331)" fill="#dae3e9" opacity="0.8"/>
        </g>
        <g transform="translate(-1862 -315)">
            <circle id="Эллипс_367-4" data-name="Эллипс 367" cx="3" cy="3" r="3" transform="translate(1862 331)" fill="#dae3e9" opacity="0.8"/>
        </g>
        <g transform="translate(-1846 -315)">
            <circle id="Эллипс_367-5" data-name="Эллипс 367" cx="3" cy="3" r="3" transform="translate(1862 331)" fill="#dae3e9" opacity="0.8"/>
        </g>
        <g transform="translate(-1830 -315)">
            <circle id="Эллипс_367-6" data-name="Эллипс 367" cx="3" cy="3" r="3" transform="translate(1862 331)" fill="#dae3e9" opacity="0.8"/>
        </g>
        <g transform="translate(-1862 -299)">
            <circle id="Эллипс_367-7" data-name="Эллипс 367" cx="3" cy="3" r="3" transform="translate(1862 331)" fill="#dae3e9" opacity="0.8"/>
        </g>
        <g transform="translate(-1846 -299)">
            <circle id="Эллипс_367-8" data-name="Эллипс 367" cx="3" cy="3" r="3" transform="translate(1862 331)" fill="#dae3e9" opacity="0.8"/>
        </g>
        <g transform="translate(-1830 -299)">
            <circle id="Эллипс_367-9" data-name="Эллипс 367" cx="3" cy="3" r="3" transform="translate(1862 331)" fill="#dae3e9" opacity="0.8"/>
        </g>
        <g transform="translate(-1862 -283)">
            <circle id="Эллипс_367-10" data-name="Эллипс 367" cx="3" cy="3" r="3" transform="translate(1862 331)" fill="#dae3e9" opacity="0.8"/>
        </g>
        <g transform="translate(-1846 -283)">
            <circle id="Эллипс_367-11" data-name="Эллипс 367" cx="3" cy="3" r="3" transform="translate(1862 331)" fill="#dae3e9" opacity="0.8"/>
        </g>
        <g transform="translate(-1830 -283)">
            <circle id="Эллипс_367-12" data-name="Эллипс 367" cx="3" cy="3" r="3" transform="translate(1862 331)" fill="#dae3e9" opacity="0.8"/>
        </g>
        <g transform="translate(-1862 -267)">
            <circle id="Эллипс_367-13" data-name="Эллипс 367" cx="3" cy="3" r="3" transform="translate(1862 331)" fill="#dae3e9" opacity="0.8"/>
        </g>
        <g transform="translate(-1846 -267)">
            <circle id="Эллипс_367-14" data-name="Эллипс 367" cx="3" cy="3" r="3" transform="translate(1862 331)" fill="#dae3e9" opacity="0.8"/>
        </g>
        <g transform="translate(-1830 -267)">
            <circle id="Эллипс_367-15" data-name="Эллипс 367" cx="3" cy="3" r="3" transform="translate(1862 331)" fill="#dae3e9" opacity="0.8"/>
        </g>
        <g transform="translate(-1862 -251)">
            <circle id="Эллипс_367-16" data-name="Эллипс 367" cx="3" cy="3" r="3" transform="translate(1862 331)" fill="#dae3e9" opacity="0.8"/>
        </g>
        <g transform="translate(-1846 -251)">
            <circle id="Эллипс_367-17" data-name="Эллипс 367" cx="3" cy="3" r="3" transform="translate(1862 331)" fill="#dae3e9" opacity="0.8"/>
        </g>
        <g transform="translate(-1830 -251)">
            <circle id="Эллипс_367-18" data-name="Эллипс 367" cx="3" cy="3" r="3" transform="translate(1862 331)" fill="#dae3e9" opacity="0.8"/>
        </g>
        <g transform="translate(-1862 -235)">
            <circle id="Эллипс_367-19" data-name="Эллипс 367" cx="3" cy="3" r="3" transform="translate(1862 331)" fill="#dae3e9" opacity="0.8"/>
        </g>
        <g transform="translate(-1846 -235)">
            <circle id="Эллипс_367-20" data-name="Эллипс 367" cx="3" cy="3" r="3" transform="translate(1862 331)" fill="#dae3e9" opacity="0.8"/>
        </g>
        <g transform="translate(-1830 -235)">
            <circle id="Эллипс_367-21" data-name="Эллипс 367" cx="3" cy="3" r="3" transform="translate(1862 331)" fill="#dae3e9" opacity="0.8"/>
        </g>
        <g transform="translate(-1862 -219)">
            <circle id="Эллипс_367-22" data-name="Эллипс 367" cx="3" cy="3" r="3" transform="translate(1862 331)" fill="#dae3e9" opacity="0.8"/>
        </g>
        <g transform="translate(-1846 -219)">
            <circle id="Эллипс_367-23" data-name="Эллипс 367" cx="3" cy="3" r="3" transform="translate(1862 331)" fill="#dae3e9" opacity="0.8"/>
        </g>
        <g transform="translate(-1830 -219)">
            <circle id="Эллипс_367-24" data-name="Эллипс 367" cx="3" cy="3" r="3" transform="translate(1862 331)" fill="#dae3e9" opacity="0.8"/>
        </g>
        <g transform="translate(-1862 -203)">
            <circle id="Эллипс_367-25" data-name="Эллипс 367" cx="3" cy="3" r="3" transform="translate(1862 331)" fill="#dae3e9" opacity="0.8"/>
        </g>
        <g transform="translate(-1846 -203)">
            <circle id="Эллипс_367-26" data-name="Эллипс 367" cx="3" cy="3" r="3" transform="translate(1862 331)" fill="#dae3e9" opacity="0.8"/>
        </g>
        <g transform="translate(-1830 -203)">
            <circle id="Эллипс_367-27" data-name="Эллипс 367" cx="3" cy="3" r="3" transform="translate(1862 331)" fill="#dae3e9" opacity="0.8"/>
        </g>
        <g transform="translate(-1862 -187)">
            <circle id="Эллипс_367-28" data-name="Эллипс 367" cx="3" cy="3" r="3" transform="translate(1862 331)" fill="#dae3e9" opacity="0.8"/>
        </g>
        <g transform="translate(-1846 -187)">
            <circle id="Эллипс_367-29" data-name="Эллипс 367" cx="3" cy="3" r="3" transform="translate(1862 331)" fill="#dae3e9" opacity="0.8"/>
        </g>
        <g transform="translate(-1830 -187)">
            <circle id="Эллипс_367-30" data-name="Эллипс 367" cx="3" cy="3" r="3" transform="translate(1862 331)" fill="#dae3e9" opacity="0.8"/>
        </g>
    </g>
</svg>