<svg xmlns="http://www.w3.org/2000/svg" width="19.302" height="15.682" viewBox="0 0 19.302 15.682"><defs><style>.a{fill:#003a60;}</style></defs><path class="a" d="M81.7,146.255a7.947,7.947,0,0,1-2.274.624,3.966,3.966,0,0,0,1.74-2.19,7.962,7.962,0,0,1-2.514.962,3.962,3.962,0,0,0-6.851,2.709,4.039,4.039,0,0,0,.1.9,11.234,11.234,0,0,1-8.161-4.138,3.966,3.966,0,0,0,1.224,5.287,3.922,3.922,0,0,1-1.793-.5v.051a3.962,3.962,0,0,0,3.176,3.882,3.957,3.957,0,0,1-1.043.139,3.914,3.914,0,0,1-.743-.071,3.964,3.964,0,0,0,3.7,2.75A8,8,0,0,1,62.4,158.3a11.263,11.263,0,0,0,17.337-9.487c0-.172,0-.342-.011-.512A8.053,8.053,0,0,0,81.7,146.255Z" transform="translate(-62.4 -144.4)"/></svg>