<svg xmlns="http://www.w3.org/2000/svg" xmlns:xlink="http://www.w3.org/1999/xlink" width="169" height="389" viewBox="0 0 169 389"><defs><style>.a{fill:none;}.b{opacity:0.276;clip-path:url(#a);}.c{fill:#9aabb5;}</style><clipPath id="a"><rect class="a" width="389" height="169"/></clipPath></defs><g transform="translate(169) rotate(90)"><g class="b"><g transform="translate(-701 -605)"><circle class="c" cx="5" cy="5" r="5" transform="translate(701 605)"/></g><g transform="translate(-676 -605)"><circle class="c" cx="5" cy="5" r="5" transform="translate(701 605)"/></g><g transform="translate(-651 -605)"><circle class="c" cx="5" cy="5" r="5" transform="translate(701 605)"/></g><g transform="translate(-626 -605)"><circle class="c" cx="5" cy="5" r="5" transform="translate(701 605)"/></g><g transform="translate(-601 -605)"><circle class="c" cx="5" cy="5" r="5" transform="translate(701 605)"/></g><g transform="translate(-576 -605)"><circle class="c" cx="5" cy="5" r="5" transform="translate(701 605)"/></g><g transform="translate(-551 -605)"><circle class="c" cx="5" cy="5" r="5" transform="translate(701 605)"/></g><g transform="translate(-526 -605)"><circle class="c" cx="5" cy="5" r="5" transform="translate(701 605)"/></g><g transform="translate(-501 -605)"><circle class="c" cx="5" cy="5" r="5" transform="translate(701 605)"/></g><g transform="translate(-476 -605)"><circle class="c" cx="5" cy="5" r="5" transform="translate(701 605)"/></g><g transform="translate(-451 -605)"><circle class="c" cx="5" cy="5" r="5" transform="translate(701 605)"/></g><g transform="translate(-426 -605)"><circle class="c" cx="5" cy="5" r="5" transform="translate(701 605)"/></g><g transform="translate(-401 -605)"><circle class="c" cx="5" cy="5" r="5" transform="translate(701 605)"/></g><g transform="translate(-376 -605)"><circle class="c" cx="5" cy="5" r="5" transform="translate(701 605)"/></g><g transform="translate(-351 -605)"><circle class="c" cx="5" cy="5" r="5" transform="translate(701 605)"/></g><g transform="translate(-326 -605)"><circle class="c" cx="5" cy="5" r="5" transform="translate(701 605)"/></g><g transform="translate(-701 -580)"><circle class="c" cx="5" cy="5" r="5" transform="translate(701 605)"/></g><g transform="translate(-676 -580)"><circle class="c" cx="5" cy="5" r="5" transform="translate(701 605)"/></g><g transform="translate(-651 -580)"><circle class="c" cx="5" cy="5" r="5" transform="translate(701 605)"/></g><g transform="translate(-626 -580)"><circle class="c" cx="5" cy="5" r="5" transform="translate(701 605)"/></g><g transform="translate(-601 -580)"><circle class="c" cx="5" cy="5" r="5" transform="translate(701 605)"/></g><g transform="translate(-576 -580)"><circle class="c" cx="5" cy="5" r="5" transform="translate(701 605)"/></g><g transform="translate(-551 -580)"><circle class="c" cx="5" cy="5" r="5" transform="translate(701 605)"/></g><g transform="translate(-526 -580)"><circle class="c" cx="5" cy="5" r="5" transform="translate(701 605)"/></g><g transform="translate(-501 -580)"><circle class="c" cx="5" cy="5" r="5" transform="translate(701 605)"/></g><g transform="translate(-476 -580)"><circle class="c" cx="5" cy="5" r="5" transform="translate(701 605)"/></g><g transform="translate(-451 -580)"><circle class="c" cx="5" cy="5" r="5" transform="translate(701 605)"/></g><g transform="translate(-426 -580)"><circle class="c" cx="5" cy="5" r="5" transform="translate(701 605)"/></g><g transform="translate(-401 -580)"><circle class="c" cx="5" cy="5" r="5" transform="translate(701 605)"/></g><g transform="translate(-376 -580)"><circle class="c" cx="5" cy="5" r="5" transform="translate(701 605)"/></g><g transform="translate(-351 -580)"><circle class="c" cx="5" cy="5" r="5" transform="translate(701 605)"/></g><g transform="translate(-326 -580)"><circle class="c" cx="5" cy="5" r="5" transform="translate(701 605)"/></g><g transform="translate(-701 -555)"><circle class="c" cx="5" cy="5" r="5" transform="translate(701 605)"/></g><g transform="translate(-676 -555)"><circle class="c" cx="5" cy="5" r="5" transform="translate(701 605)"/></g><g transform="translate(-651 -555)"><circle class="c" cx="5" cy="5" r="5" transform="translate(701 605)"/></g><g transform="translate(-626 -555)"><circle class="c" cx="5" cy="5" r="5" transform="translate(701 605)"/></g><g transform="translate(-601 -555)"><circle class="c" cx="5" cy="5" r="5" transform="translate(701 605)"/></g><g transform="translate(-576 -555)"><circle class="c" cx="5" cy="5" r="5" transform="translate(701 605)"/></g><g transform="translate(-551 -555)"><circle class="c" cx="5" cy="5" r="5" transform="translate(701 605)"/></g><g transform="translate(-526 -555)"><circle class="c" cx="5" cy="5" r="5" transform="translate(701 605)"/></g><g transform="translate(-501 -555)"><circle class="c" cx="5" cy="5" r="5" transform="translate(701 605)"/></g><g transform="translate(-476 -555)"><circle class="c" cx="5" cy="5" r="5" transform="translate(701 605)"/></g><g transform="translate(-451 -555)"><circle class="c" cx="5" cy="5" r="5" transform="translate(701 605)"/></g><g transform="translate(-426 -555)"><circle class="c" cx="5" cy="5" r="5" transform="translate(701 605)"/></g><g transform="translate(-401 -555)"><circle class="c" cx="5" cy="5" r="5" transform="translate(701 605)"/></g><g transform="translate(-376 -555)"><circle class="c" cx="5" cy="5" r="5" transform="translate(701 605)"/></g><g transform="translate(-351 -555)"><circle class="c" cx="5" cy="5" r="5" transform="translate(701 605)"/></g><g transform="translate(-326 -555)"><circle class="c" cx="5" cy="5" r="5" transform="translate(701 605)"/></g><g transform="translate(-701 -530)"><circle class="c" cx="5" cy="5" r="5" transform="translate(701 605)"/></g><g transform="translate(-676 -530)"><circle class="c" cx="5" cy="5" r="5" transform="translate(701 605)"/></g><g transform="translate(-651 -530)"><circle class="c" cx="5" cy="5" r="5" transform="translate(701 605)"/></g><g transform="translate(-626 -530)"><circle class="c" cx="5" cy="5" r="5" transform="translate(701 605)"/></g><g transform="translate(-601 -530)"><circle class="c" cx="5" cy="5" r="5" transform="translate(701 605)"/></g><g transform="translate(-576 -530)"><circle class="c" cx="5" cy="5" r="5" transform="translate(701 605)"/></g><g transform="translate(-551 -530)"><circle class="c" cx="5" cy="5" r="5" transform="translate(701 605)"/></g><g transform="translate(-526 -530)"><circle class="c" cx="5" cy="5" r="5" transform="translate(701 605)"/></g><g transform="translate(-501 -530)"><circle class="c" cx="5" cy="5" r="5" transform="translate(701 605)"/></g><g transform="translate(-476 -530)"><circle class="c" cx="5" cy="5" r="5" transform="translate(701 605)"/></g><g transform="translate(-451 -530)"><circle class="c" cx="5" cy="5" r="5" transform="translate(701 605)"/></g><g transform="translate(-426 -530)"><circle class="c" cx="5" cy="5" r="5" transform="translate(701 605)"/></g><g transform="translate(-401 -530)"><circle class="c" cx="5" cy="5" r="5" transform="translate(701 605)"/></g><g transform="translate(-376 -530)"><circle class="c" cx="5" cy="5" r="5" transform="translate(701 605)"/></g><g transform="translate(-351 -530)"><circle class="c" cx="5" cy="5" r="5" transform="translate(701 605)"/></g><g transform="translate(-326 -530)"><circle class="c" cx="5" cy="5" r="5" transform="translate(701 605)"/></g><g transform="translate(-701 -505)"><circle class="c" cx="5" cy="5" r="5" transform="translate(701 605)"/></g><g transform="translate(-676 -505)"><circle class="c" cx="5" cy="5" r="5" transform="translate(701 605)"/></g><g transform="translate(-651 -505)"><circle class="c" cx="5" cy="5" r="5" transform="translate(701 605)"/></g><g transform="translate(-626 -505)"><circle class="c" cx="5" cy="5" r="5" transform="translate(701 605)"/></g><g transform="translate(-601 -505)"><circle class="c" cx="5" cy="5" r="5" transform="translate(701 605)"/></g><g transform="translate(-576 -505)"><circle class="c" cx="5" cy="5" r="5" transform="translate(701 605)"/></g><g transform="translate(-551 -505)"><circle class="c" cx="5" cy="5" r="5" transform="translate(701 605)"/></g><g transform="translate(-526 -505)"><circle class="c" cx="5" cy="5" r="5" transform="translate(701 605)"/></g><g transform="translate(-501 -505)"><circle class="c" cx="5" cy="5" r="5" transform="translate(701 605)"/></g><g transform="translate(-476 -505)"><circle class="c" cx="5" cy="5" r="5" transform="translate(701 605)"/></g><g transform="translate(-451 -505)"><circle class="c" cx="5" cy="5" r="5" transform="translate(701 605)"/></g><g transform="translate(-426 -505)"><circle class="c" cx="5" cy="5" r="5" transform="translate(701 605)"/></g><g transform="translate(-401 -505)"><circle class="c" cx="5" cy="5" r="5" transform="translate(701 605)"/></g><g transform="translate(-376 -505)"><circle class="c" cx="5" cy="5" r="5" transform="translate(701 605)"/></g><g transform="translate(-351 -505)"><circle class="c" cx="5" cy="5" r="5" transform="translate(701 605)"/></g><g transform="translate(-326 -505)"><circle class="c" cx="5" cy="5" r="5" transform="translate(701 605)"/></g><g transform="translate(-701 -480)"><circle class="c" cx="5" cy="5" r="5" transform="translate(701 605)"/></g><g transform="translate(-676 -480)"><circle class="c" cx="5" cy="5" r="5" transform="translate(701 605)"/></g><g transform="translate(-651 -480)"><circle class="c" cx="5" cy="5" r="5" transform="translate(701 605)"/></g><g transform="translate(-626 -480)"><circle class="c" cx="5" cy="5" r="5" transform="translate(701 605)"/></g><g transform="translate(-601 -480)"><circle class="c" cx="5" cy="5" r="5" transform="translate(701 605)"/></g><g transform="translate(-576 -480)"><circle class="c" cx="5" cy="5" r="5" transform="translate(701 605)"/></g><g transform="translate(-551 -480)"><circle class="c" cx="5" cy="5" r="5" transform="translate(701 605)"/></g><g transform="translate(-526 -480)"><circle class="c" cx="5" cy="5" r="5" transform="translate(701 605)"/></g><g transform="translate(-501 -480)"><circle class="c" cx="5" cy="5" r="5" transform="translate(701 605)"/></g><g transform="translate(-476 -480)"><circle class="c" cx="5" cy="5" r="5" transform="translate(701 605)"/></g><g transform="translate(-451 -480)"><circle class="c" cx="5" cy="5" r="5" transform="translate(701 605)"/></g><g transform="translate(-426 -480)"><circle class="c" cx="5" cy="5" r="5" transform="translate(701 605)"/></g><g transform="translate(-401 -480)"><circle class="c" cx="5" cy="5" r="5" transform="translate(701 605)"/></g><g transform="translate(-376 -480)"><circle class="c" cx="5" cy="5" r="5" transform="translate(701 605)"/></g><g transform="translate(-351 -480)"><circle class="c" cx="5" cy="5" r="5" transform="translate(701 605)"/></g><g transform="translate(-326 -480)"><circle class="c" cx="5" cy="5" r="5" transform="translate(701 605)"/></g><g transform="translate(-701 -455)"><circle class="c" cx="5" cy="5" r="5" transform="translate(701 605)"/></g><g transform="translate(-676 -455)"><circle class="c" cx="5" cy="5" r="5" transform="translate(701 605)"/></g><g transform="translate(-651 -455)"><circle class="c" cx="5" cy="5" r="5" transform="translate(701 605)"/></g><g transform="translate(-626 -455)"><circle class="c" cx="5" cy="5" r="5" transform="translate(701 605)"/></g><g transform="translate(-601 -455)"><circle class="c" cx="5" cy="5" r="5" transform="translate(701 605)"/></g><g transform="translate(-576 -455)"><circle class="c" cx="5" cy="5" r="5" transform="translate(701 605)"/></g><g transform="translate(-551 -455)"><circle class="c" cx="5" cy="5" r="5" transform="translate(701 605)"/></g><g transform="translate(-526 -455)"><circle class="c" cx="5" cy="5" r="5" transform="translate(701 605)"/></g><g transform="translate(-501 -455)"><circle class="c" cx="5" cy="5" r="5" transform="translate(701 605)"/></g><g transform="translate(-476 -455)"><circle class="c" cx="5" cy="5" r="5" transform="translate(701 605)"/></g><g transform="translate(-451 -455)"><circle class="c" cx="5" cy="5" r="5" transform="translate(701 605)"/></g><g transform="translate(-426 -455)"><circle class="c" cx="5" cy="5" r="5" transform="translate(701 605)"/></g><g transform="translate(-401 -455)"><circle class="c" cx="5" cy="5" r="5" transform="translate(701 605)"/></g><g transform="translate(-376 -455)"><circle class="c" cx="5" cy="5" r="5" transform="translate(701 605)"/></g><g transform="translate(-351 -455)"><circle class="c" cx="5" cy="5" r="5" transform="translate(701 605)"/></g><g transform="translate(-326 -455)"><circle class="c" cx="5" cy="5" r="5" transform="translate(701 605)"/></g></g></g></svg>