<svg id="Component_3_10" data-name="Component 3 – 10" xmlns="http://www.w3.org/2000/svg" width="69" height="75" viewBox="0 0 69 75">
  <ellipse id="Ellipse_369" data-name="Ellipse 369" cx="32" cy="31.5" rx="32" ry="31.5" transform="translate(5 12)" fill="#4dccc4"/>
  <circle id="Ellipse_382" data-name="Ellipse 382" cx="5.5" cy="5.5" r="5.5" transform="translate(0 12)" fill="#4dccc4"/>
  <circle id="Ellipse_383" data-name="Ellipse 383" cx="2.5" cy="2.5" r="2.5" transform="translate(12)" fill="#4dccc4"/>
  <circle id="Ellipse_384" data-name="Ellipse 384" cx="1.5" cy="1.5" r="1.5" transform="translate(14 11)" fill="#4dccc4"/>
  <g id="Create_an_account-01" transform="translate(-5 5.527)">
    <path id="Path_1935" data-name="Path 1935" d="M197.629,82.319H187.365a.765.765,0,1,1,0-1.529h10.264a.765.765,0,0,1,0,1.529Z" transform="translate(-147.666 -53.788)" fill="#fff"/>
    <path id="Path_1936" data-name="Path 1936" d="M197.629,112.909H187.365a.765.765,0,0,1,0-1.529h10.264a.765.765,0,0,1,0,1.529Z" transform="translate(-147.666 -81.065)" fill="#fff"/>
    <path id="Path_1937" data-name="Path 1937" d="M197.629,143.5H187.365a.765.765,0,0,1,0-1.529h10.264a.765.765,0,0,1,0,1.529Z" transform="translate(-147.666 -108.342)" fill="#fff"/>
    <path id="Path_1938" data-name="Path 1938" d="M197.629,174.089H187.365a.765.765,0,0,1,0-1.529h10.264a.765.765,0,0,1,0,1.529Z" transform="translate(-147.666 -135.619)" fill="#fff"/>
    <path id="Path_1939" data-name="Path 1939" d="M131.369,76.494a.766.766,0,0,1-.5-.19l-1.277-1.121a.765.765,0,1,1,1.009-1.149l.691.608L133,72.62a.765.765,0,1,1,1.165.988l-2.216,2.618a.765.765,0,0,1-.526.269Z" transform="translate(-96.597 -46.237)" fill="#fff"/>
    <path id="Path_1940" data-name="Path 1940" d="M131.369,118.658a.767.767,0,0,1-.5-.191l-1.277-1.121A.765.765,0,0,1,130.6,116.2l.691.608L133,114.782a.765.765,0,0,1,1.165.988l-2.216,2.616a.766.766,0,0,1-.526.27Z" transform="translate(-96.597 -83.881)" fill="#fff"/>
    <path id="Path_1941" data-name="Path 1941" d="M131.369,159.558a.758.758,0,0,1-.5-.191l-1.277-1.12A.765.765,0,1,1,130.6,157.1l.691.608L133,155.682a.765.765,0,0,1,1.165.988l-2.214,2.62a.758.758,0,0,1-.526.269A.507.507,0,0,1,131.369,159.558Z" transform="translate(-96.597 -120.351)" fill="#fff"/>
    <path id="Path_1942" data-name="Path 1942" d="M344.936,85.6a1.126,1.126,0,0,1-.337.806l-1,1a1.141,1.141,0,0,1-1.613,0l-3.465-3.553a7.039,7.039,0,0,1-2.987.689,6.839,6.839,0,0,1-6.851-6.262,5.836,5.836,0,0,1-.01-1.1,6.879,6.879,0,0,1,13.726.016,5.886,5.886,0,0,1-.011,1.083,6.859,6.859,0,0,1-1.093,3.14l-.008.028L344.6,84.79A1.135,1.135,0,0,1,344.936,85.6Zm-2.141.937.94-.939-4.007-4.051.347-.413c.037-.044.057-.068.07-.086a.879.879,0,0,1,.053-.1V80.93l.065-.1a5.679,5.679,0,0,0,.95-2.67,4.907,4.907,0,0,0,.011-.884,5.7,5.7,0,0,0-11.371-.016,4.85,4.85,0,0,0,.009.9,5.664,5.664,0,0,0,5.676,5.186,5.87,5.87,0,0,0,2.662-.665c.048-.024.108-.057.13-.07l.4-.243.332.332Z" transform="translate(-274.336 -44.859)" fill="#fff"/>
    <path id="Path_1943" data-name="Path 1943" d="M61.695,27a.765.765,0,0,0,.765-.765V22.961a2.491,2.491,0,0,0-2.491-2.491H23.491A2.491,2.491,0,0,0,21,22.961v22.22a2.491,2.491,0,0,0,2.491,2.491H37.854v3.752h-3.01A1.781,1.781,0,0,0,33.065,53.2v.909a1.781,1.781,0,0,0,1.779,1.779H48.616a1.78,1.78,0,0,0,1.778-1.779V53.2a1.78,1.78,0,0,0-1.778-1.778H45.605V47.673H59.972a2.491,2.491,0,0,0,2.491-2.491V39.3a.765.765,0,1,0-1.529,0v3.174h-38.4V22.961A.962.962,0,0,1,23.491,22H59.972a.962.962,0,0,1,.958.963v3.272A.765.765,0,0,0,61.695,27ZM48.616,52.954a.25.25,0,0,1,.25.249v.909a.25.25,0,0,1-.25.25H34.845a.25.25,0,0,1-.25-.25V53.2a.25.25,0,0,1,.25-.249Zm-4.57-1.529H39.41V47.673h4.63ZM60.931,44v1.183a.962.962,0,0,1-.958.963H23.491a.962.962,0,0,1-.958-.963V44Z" fill="#fff"/>
  </g>
</svg>
