<svg xmlns="http://www.w3.org/2000/svg" viewBox="0 0 2547.26 453.77"><defs><style>.cls-1{fill:#fff;}.cls-2{fill:#002c44;}.cls-3,.cls-4{fill:none;stroke-miterlimit:10;stroke-width:28.18px;}.cls-3{stroke:#002c44;}.cls-4{stroke:#fff;}</style></defs><g id="Layer_1" data-name="Layer 1"><g id="Layer_3" data-name="Layer 3"><path class="cls-1" d="M574.37,80.61v58.84h103v41.34h-103v81.1H522.85V39.27H691.09V80.61Z"/><path class="cls-1" d="M713.34,39.27c0-15.59,12.4-27.67,30.85-27.67S775,23.05,775,38.31c0,16.54-12.4,28.62-30.84,28.62S713.34,54.85,713.34,39.27Zm6,51.52H769v171.1H719.38Z"/><path class="cls-1" d="M815.1,25.91h49.61v236H815.1Z"/><path class="cls-1" d="M1077.47,190.33H948c4.77,21.31,22.9,34.35,49,34.35,18.13,0,31.17-5.4,42.93-16.54l26.4,28.63c-15.9,18.13-39.75,27.67-70.6,27.67-59.16,0-97.64-37.22-97.64-88.1,0-51.2,39.12-88.1,91.28-88.1,50.25,0,89,33.72,89,88.73C1078.43,180.79,1077.79,186.2,1077.47,190.33ZM947.39,161.39h84.29c-3.5-21.62-19.72-35.62-42-35.62C967.11,125.77,950.89,139.45,947.39,161.39Z"/><path class="cls-1" d="M1283.54,234.22v27.67H1122V39.27h157.11V66.93H1153.78v68.38h111.64v27H1153.78v71.87Z"/><path class="cls-1" d="M1476.9,93.33l-73.79,168.56H1372L1298.16,93.33H1330L1387.9,228.5,1447,93.33Z"/><path class="cls-1" d="M1500.09,41.17c0-11.13,8.91-20,20.68-20s20.67,8.59,20.67,19.4c0,11.45-8.59,20.35-20.67,20.35C1509,60.89,1500.09,52.31,1500.09,41.17Zm5.41,52.16H1536V261.89h-30.53Z"/><path class="cls-1" d="M1578.64,177.61c0-50.25,37.21-85.87,89-85.87,30.21,0,55.34,12.4,68.7,35.94l-23.22,14.95c-10.81-16.54-27.35-24.17-45.8-24.17-33.07,0-57.88,23.21-57.88,59.15,0,36.58,24.81,59.47,57.88,59.47,18.45,0,35-7.63,45.8-24.16l23.22,14.62c-13.36,23.54-38.49,36.26-68.7,36.26C1615.85,263.8,1578.64,227.86,1578.64,177.61Z"/><path class="cls-1" d="M1872.81,252c-9.22,8-23.22,11.77-36.89,11.77-34,0-53.43-18.76-53.43-52.79V118.46h-28.62V93.33h28.62V56.44H1813V93.33h48.34v25.13H1813v91.28c0,18.12,9.54,28.3,26.4,28.3a38.4,38.4,0,0,0,23.85-7.95Z"/><path class="cls-1" d="M1904.28,41.17c0-11.13,8.9-20,20.67-20s20.67,8.59,20.67,19.4c0,11.45-8.59,20.35-20.67,20.35C1913.18,60.89,1904.28,52.31,1904.28,41.17Zm5.4,52.16h30.53V261.89h-30.53Z"/><path class="cls-1" d="M1982.83,177.61c0-50.25,37.21-85.87,87.78-85.87s87.45,35.62,87.45,85.87-36.89,86.19-87.45,86.19S1982.83,227.86,1982.83,177.61Zm144.39,0c0-35.94-24.18-59.15-56.61-59.15s-56.93,23.21-56.93,59.15,24.48,59.47,56.93,59.47S2127.22,213.55,2127.22,177.61Z"/><path class="cls-1" d="M2360.32,164.89v97h-30.54v-93.5c0-33.08-16.53-49.29-45.47-49.29-32.45,0-53.44,19.39-53.44,56v86.82h-30.53V93.33h29.26v25.45c12.4-17.18,34-27,60.75-27C2331.38,91.74,2360.32,115.28,2360.32,164.89Z"/></g><path class="cls-1" d="M617.14,321.22V439h-9.78l-72.1-95.55V439H523.41V321.22h9.77l72.26,95.56V321.22Z"/><path class="cls-1" d="M773,428.22V439h-79.3V321.22h76.9V332h-65v41.89h58v10.6h-58v43.74Z"/><path class="cls-1" d="M993.32,321.22,955.51,439H943L910.17,338.55,877.16,439H864.83L827,321.22h12.18L871.55,422.5,905,321.22H916.1L949.1,423,982,321.22Z"/><path class="cls-1" d="M1172.44,321.22c.06,6.16,0,82.1,0,82.1,0,17.33-7,25.91-20.83,25.91-9.93,0-18.1-5.05-24.19-14.47l-7.05,8.41A36.36,36.36,0,0,0,1151.45,440c21.47,0,32.68-12.28,32.68-37.18V321.22Z"/><path class="cls-1" d="M1339.06,428.22V439h-79.31V321.22h76.91V332h-65.05v41.89h58v10.6h-58v43.74Z"/><path class="cls-1" d="M1483.58,439l-25.64-37.85a75.26,75.26,0,0,1-9,.51h-30.12V439H1407V321.22h42c28.52,0,45.82,15.14,45.82,40.38,0,18.5-9.29,31.46-25.63,37L1496.55,439Zm-.65-77.38c0-18.84-11.85-29.61-34.28-29.61h-29.8V391h29.8C1471.08,391,1482.93,380.1,1482.93,361.6Z"/><path class="cls-1" d="M1552.15,424.68l4.64-9.59c8,8.25,22.27,14.3,37,14.3,21,0,30.12-9.25,30.12-20.86,0-32.3-69.05-12.45-69.05-56,0-17.32,12.82-32.3,41.34-32.3,12.65,0,25.79,3.87,34.76,10.43l-4,9.93a55.81,55.81,0,0,0-30.76-9.76c-20.51,0-29.64,9.59-29.64,21.37,0,32.3,69,12.78,69,55.68,0,17.33-13.14,32.13-41.82,32.13C1577,440,1560.48,433.77,1552.15,424.68Z"/><path class="cls-1" d="M1780.77,428.22V439h-79.3V321.22h76.9V332h-65v41.89h58v10.6h-58v43.74Z"/><path class="cls-1" d="M1885.72,398.27V439H1874V398.27l-44.86-77h12.66l38.45,66.12,38.45-66.12h11.86Z"/></g><g id="Layer_2" data-name="Layer 2"><path class="cls-2" d="M319.34,350H231.41l44-44,43.95-44Z"/><path class="cls-3" d="M388.94,275H287.63q-10,10.08-20.15,20.22-11.43,11.42-22.9,22.53V419.32a5.07,5.07,0,0,0,5.08,5.07H388.82a5.09,5.09,0,0,0,5.09-5.07V280.17A5.09,5.09,0,0,0,388.94,275Z"/><rect class="cls-4" x="24.06" y="275.03" width="149.38" height="149.38" rx="5.09"/><rect class="cls-4" x="244.65" y="54.44" width="149.38" height="149.38" rx="5.09"/><rect class="cls-4" x="24.06" y="54.44" width="149.38" height="149.38" rx="5.09"/><path class="cls-1" d="M2395.51,244l12.72-24.17c14.32,10.18,37.22,17.49,59.17,17.49,28.3,0,40.07-8.59,40.07-22.9,0-37.85-106.55-5.09-106.55-72.2,0-30.22,27-50.57,70.29-50.57,21.95,0,46.76,5.72,61.39,15.26l-13,24.18c-15.27-9.86-32.13-13.36-48.67-13.36-26.71,0-39.75,9.86-39.75,23.22,0,39.76,106.87,7.31,106.87,72.83,0,30.54-28,49.94-72.84,49.94C2437.18,263.7,2409.51,255.11,2395.51,244Z"/><path class="cls-2" d="M308.29,338.89H231.41l38.45-38.45L308.29,262Z"/></g></svg>